<?xml version="1.0" encoding="utf-8"?>
<!-- Generator: Adobe Illustrator 24.0.2, SVG Export Plug-In . SVG Version: 6.00 Build 0)  -->
<svg version="1.1" xmlns="http://www.w3.org/2000/svg" xmlns:xlink="http://www.w3.org/1999/xlink" x="0px" y="0px"
	 viewBox="0 0 215.3 215.3" style="enable-background:new 0 0 215.3 215.3;" xml:space="preserve">
<style type="text/css">
	.st0{fill:#762EF9;}
	.st1{fill:#FAFAFA;}
</style>
<g id="Layer_5">
	<path class="st0" d="M39.9,0h135.5c22,0,39.9,17.9,39.9,39.9v135.5c0,22-17.9,39.9-39.9,39.9H39.9c-22,0-39.9-17.9-39.9-39.9V39.9
		C0,17.9,17.9,0,39.9,0z"/>
</g>
<g id="Layer_4">
	<path class="st1" d="M46.3,162.8c-1.3-3.3-1.3-56.6,61.8-51.7c0,0,5.1,0.4,5.1,6.4V163c0,0,0,2.3-3.8,3.7s-47.6,0.2-57.4,0
		C49.5,166.7,47.3,165.1,46.3,162.8L46.3,162.8z"/>
</g>
<g id="Layer_3">
	<path class="st1" d="M179.5,125.9c0.5,1.3,0.8,2.6,0.8,4c0,2.8-1.1,5.5-3.1,7.5l-26.1,24.2c-1,1-2.1,2.1-3.2,3
		c-1.1,0.9-2.4,1.6-3.8,2.1c-1,0.4-2,0.6-3.1,0.6c-3.1,0-6-1.5-7.8-4c-1.5-2-1.8-4.5-1.8-7.1v-56.1c0-0.8,0.1-1.6,0.2-2.4
		c0.6-2.4,2-4.4,4.1-5.7h0.1c1.5-0.9,3.2-1.3,4.9-1.1l1.8,0.2c1.7,0.2,3.3,1,4.5,2.2l30.3,29.3C178.3,123.5,179,124.6,179.5,125.9z"
		/>
</g>
<g id="Layer_2">
	<circle class="st1" cx="95.2" cy="65.5" r="29.7"/>
</g>
</svg>
